# xmcd
#
# Track frame offsets:
#	150
#	10653
#	23686
#	34336
#	45731
#	58493
#	70401
#	82709
#	95667
#	106050
#	119604
#	132009
#	143384
#	154457
#	168842
#	183334
#	203858
#	216805
#	230298
#	241848
#
# Disc length: 3378 seconds
#
# Revision: 1
# Processed by: cddbd v1.5.1PL2 Copyright (c) Steve Scherf et al.
# Submitted via: audiograbber 1.83.01
#
DISCID=090d3014
DTITLE=Various Artist - Tumbling Down - 40 Great Hits Of NZ Country Music Cd 1
DTITLE=of 2
DYEAR=1900
DGENRE=Country
TTITLE0=Maria Dallas - Tumbling Down 
TTITLE1=Brendan Beleski - Country Boy
TTITLE2=Roger Tibbs - Streamline Yodel
TTITLE3=Cole Wilson and The Tumbleweeds - The Smoke Went Up The Chimney
TTITLE4=Suzanne Prentice - Crazy Arms
TTITLE5=Dusty Spittle - Cardigan Bay
TTITLE6=Trevor Dawe - Faded Love
TTITLE7=Jeff Rea - Life On The Road
TTITLE8=Kitten - He Taught Me To Yodel
TTITLE9=Max Whitehouse - Blue Eyes Crying In The Rain
TTITLE10=Gray Bartlett - Galveston
TTITLE11=Noel Parlane - Movin' On
TTITLE12=Garner Wayne and His Saddle Pals - Kiwi Hobo
TTITLE13=Brian McCauley - Christchurch City
TTITLE14=Danny McGirr - The Friendly Game Of Pool
TTITLE15=Suzanne Prentice - How Great Thou Art
TTITLE16=Tex Morton - Barnacle Bill The Sailor
TTITLE17=Max McCauley - The Bluff Oyster Song
TTITLE18=Reg and Marion - Are You Mine
TTITLE19=Maria Dallas  - Ambush
EXTD=
EXTT0=Re-recorded version of song 
EXTT1=
EXTT2=
EXTT3=
EXTT4=
EXTT5=
EXTT6=
EXTT7=
EXTT8=
EXTT9=
EXTT10=
EXTT11=
EXTT12=
EXTT13=
EXTT14=
EXTT15=
EXTT16=
EXTT17=
EXTT18=
EXTT19=
PLAYORDER=
